HIERARCHY
ROOT hip
{
  OFFSET 0 0 0
  CHANNELS 6 Xposition Yposition Zposition Zrotation Yrotation Xrotation
  JOINT abdomen
  {
    OFFSET 0 20.6881 -0.73152
    CHANNELS 3 Zrotation Xrotation Yrotation
    JOINT chest
    {
      OFFSET 0 11.7043 -0.48768
      CHANNELS 3 Zrotation Xrotation Yrotation
      JOINT neck
      {
        OFFSET 0 22.1894 -2.19456
        CHANNELS 3 Zrotation Xrotation Yrotation
        JOINT head
        {
          OFFSET -0.24384 7.07133 1.2192
          CHANNELS 3 Zrotation Xrotation Yrotation
          JOINT leftEye
          {
            OFFSET 4.14528 8.04674 8.04672
            CHANNELS 3 Zrotation Xrotation Yrotation
            End Site
            {
              OFFSET 1 0 0
            }
          }
          JOINT rightEye
          {
            OFFSET -3.6576 8.04674 8.04672
            CHANNELS 3 Zrotation Xrotation Yrotation
            End Site
            {
              OFFSET 1 0 0
            }
          }
        }
      }
      JOINT rCollar
      {
        OFFSET -2.68224 19.2634 -4.8768
        CHANNELS 3 Zrotation Xrotation Yrotation
        JOINT rShldr
        {
          OFFSET -8.77824 -1.95073 1.46304
          CHANNELS 3 Zrotation Xrotation Yrotation
          JOINT rForeArm
          {
            OFFSET -28.1742 -1.7115 0.48768
            CHANNELS 3 Zrotation Xrotation Yrotation
            JOINT rHand
            {
              OFFSET -22.5879 0.773209 7.07136
              CHANNELS 3 Zrotation Xrotation Yrotation
              JOINT rThumb1
              {
                OFFSET -1.2192 -0.487915 3.41376
                CHANNELS 3 Zrotation Xrotation Yrotation
                JOINT rThumb2
                {
                  OFFSET -3.37035 -0.52449 3.41376
                  CHANNELS 3 Zrotation Xrotation Yrotation
                  End Site
                  {
                    OFFSET -1.78271 -1.18214 1.43049
                  }
                }
              }
              JOINT rIndex1
              {
                OFFSET -7.75947 0.938293 5.60832
                CHANNELS 3 Zrotation Xrotation Yrotation
                JOINT rIndex2
                {
                  OFFSET -2.54057 -0.884171 1.56538
                  CHANNELS 3 Zrotation Xrotation Yrotation
                  End Site
                  {
                    OFFSET -1.62519 -0.234802 1.16502
                  }
                }
              }
              JOINT rMid1
              {
                OFFSET -8.24714 1.18213 3.41376
                CHANNELS 3 Zrotation Xrotation Yrotation
                JOINT rMid2
                {
                  OFFSET -3.10165 -0.590103 1.0647
                  CHANNELS 3 Zrotation Xrotation Yrotation
                  End Site
                  {
                    OFFSET -2.48547 -0.328903 0.83742
                  }
                }
              }
              JOINT rRing1
              {
                OFFSET -8.82822 0.546677 1.51678
                CHANNELS 3 Zrotation Xrotation Yrotation
                JOINT rRing2
                {
                  OFFSET -2.60934 -0.819778 -0.0198488
                  CHANNELS 3 Zrotation Xrotation Yrotation
                  End Site
                  {
                    OFFSET -2.33842 -0.294052 0.168128
                  }
                }
              }
              JOINT rPinky1
              {
                OFFSET -8.27202 -0.0477905 -0.4584
                CHANNELS 3 Zrotation Xrotation Yrotation
                JOINT rPinky2
                {
                  OFFSET -1.82734 -0.647385 -0.700984
                  CHANNELS 3 Zrotation Xrotation Yrotation
                  End Site
                  {
                    OFFSET -1.69225 -0.51767 -0.607171
                  }
                }
              }
            }
          }
        }
      }
      JOINT lCollar
      {
        OFFSET 2.68224 19.2634 -4.8768
        CHANNELS 3 Zrotation Xrotation Yrotation
        JOINT lShldr
        {
          OFFSET 8.77824 -1.95073 1.46304
          CHANNELS 3 Zrotation Xrotation Yrotation
          JOINT lForeArm
          {
            OFFSET 28.1742 -1.7115 0.48768
            CHANNELS 3 Zrotation Xrotation Yrotation
            JOINT lHand
            {
              OFFSET 22.5879 0.773209 7.07136
              CHANNELS 3 Zrotation Xrotation Yrotation
              JOINT lThumb1
              {
                OFFSET 1.2192 -0.487915 3.41376
                CHANNELS 3 Zrotation Xrotation Yrotation
                JOINT lThumb2
                {
                  OFFSET 3.37035 -0.52449 3.41376
                  CHANNELS 3 Zrotation Xrotation Yrotation
                  End Site
                  {
                    OFFSET 1.78271 -1.18214 1.43049
                  }
                }
              }
              JOINT lIndex1
              {
                OFFSET 7.75947 0.938293 5.60832
                CHANNELS 3 Zrotation Xrotation Yrotation
                JOINT lIndex2
                {
                  OFFSET 2.54057 -0.884171 1.56538
                  CHANNELS 3 Zrotation Xrotation Yrotation
                  End Site
                  {
                    OFFSET 1.62519 -0.234802 1.16502
                  }
                }
              }
              JOINT lMid1
              {
                OFFSET 8.24714 1.18213 3.41376
                CHANNELS 3 Zrotation Xrotation Yrotation
                JOINT lMid2
                {
                  OFFSET 3.10165 -0.590103 1.0647
                  CHANNELS 3 Zrotation Xrotation Yrotation
                  End Site
                  {
                    OFFSET 2.48547 -0.328903 0.83742
                  }
                }
              }
              JOINT lRing1
              {
                OFFSET 8.82822 0.546677 1.51678
                CHANNELS 3 Zrotation Xrotation Yrotation
                JOINT lRing2
                {
                  OFFSET 2.60934 -0.819778 -0.0198488
                  CHANNELS 3 Zrotation Xrotation Yrotation
                  End Site
                  {
                    OFFSET 2.33842 -0.294052 0.168128
                  }
                }
              }
              JOINT lPinky1
              {
                OFFSET 8.27202 -0.0477905 -0.4584
                CHANNELS 3 Zrotation Xrotation Yrotation
                JOINT lPinky2
                {
                  OFFSET 1.82734 -0.647385 -0.700984
                  CHANNELS 3 Zrotation Xrotation Yrotation
                  End Site
                  {
                    OFFSET 1.69225 -0.51767 -0.607171
                  }
                }
              }
            }
          }
        }
      }
    }
  }
  JOINT rButtock
  {
    OFFSET -8.77824 4.35084 1.2192
    CHANNELS 3 Zrotation Xrotation Yrotation
    JOINT rThigh
    {
      OFFSET 0 -1.70687 -2.19456
      CHANNELS 3 Zrotation Xrotation Yrotation
      JOINT rShin
      {
        OFFSET 0 -36.8199 0.73152
        CHANNELS 3 Zrotation Xrotation Yrotation
        JOINT rFoot
        {
          OFFSET 0.73152 -45.1104 -5.12064
          CHANNELS 3 Zrotation Xrotation Yrotation
          End Site
          {
            OFFSET -1.1221 -3.69964 12.103
          }
        }
      }
    }
  }
  JOINT lButtock
  {
    OFFSET 8.77824 4.35084 1.2192
    CHANNELS 3 Zrotation Xrotation Yrotation
    JOINT lThigh
    {
      OFFSET 0 -1.70687 -2.19456
      CHANNELS 3 Zrotation Xrotation Yrotation
      JOINT lShin
      {
        OFFSET 0 -36.8199 0.73152
        CHANNELS 3 Zrotation Xrotation Yrotation
        JOINT lFoot
        {
          OFFSET -0.73152 -45.1104 -5.12064
          CHANNELS 3 Zrotation Xrotation Yrotation
          End Site
          {
            OFFSET 1.1221 -3.69964 12.103
          }
        }
      }
    }
  }
}
MOTION
Frames:	4
Frame Time:	0.03333
-1260.5904679907317 21.824790322886884 -2335.074671845077 -4.944684028625488 -8.407901763916016 6.252169609069824 -1.1488181352615356 14.93136978149414 4.227072715759277 4.487741470336914 -9.903556823730469 -1.85127592086792 -5.815083980560303 18.106977462768555 -2.8148796558380127 8.25564193725586 -25.690797805786133 -2.986403226852417 -0.47788771986961365 -0.5641544461250305 0.2112375795841217 -1.4500274658203125 2.1048195362091064 0.9488036632537842 0.2112639993429184 0.625354528427124 3.0087716579437256 45.64446258544922 41.94639587402344 17.137069702148438 -24.495891571044922 -26.248537063598633 71.59393310546875 -1.634792685508728 -16.78815460205078 -1.6745679378509521 -0.03820415213704109 -0.1583792120218277 0.11599407345056534 1.6306121349334717 -0.32717886567115784 -0.9168461561203003 1.6919715404510498 -0.6505396962165833 -0.3218596279621124 8.029223442077637 5.861761093139648 0.45934465527534485 0.8658784031867981 0.7750666737556458 -0.41317018866539 2.2544565200805664 1.4401092529296875 3.1591601371765137 1.4606808423995972 0.34415993094444275 0.6186995506286621 12.315312385559082 0.12519218027591705 1.382089614868164 0.7619323134422302 -1.9206103086471558 -0.6713917255401611 2.0534379482269287 1.1375800371170044 -0.9955786466598511 -1.4544581174850464 -0.4923323392868042 0.7923299074172974 -48.58183288574219 36.1531867980957 -34.391944885253906 24.8929500579834 -23.305131912231445 -66.75291442871094 1.2296537160873413 -14.63321590423584 4.798764705657959 -0.9191502928733826 -0.4847170114517212 -0.23436006903648376 -0.840032696723938 0.8096882700920105 0.03306061774492264 -0.6591488122940063 0.28317490220069885 0.6978573203086853 -8.76602840423584 7.705427646636963 -2.729276418685913 0.355183869600296 0.08622957020998001 -3.089024543762207 -4.632750034332275 -0.6268316507339478 -0.15890584886074066 0.3188185691833496 0.2547858953475952 1.2511687278747559 -10.230819702148438 1.0159369707107544 -1.2161259651184082 1.0259127616882324 0.48373764753341675 1.0685534477233887 -0.8174094557762146 -1.8383444547653198 1.0510728359222412 -0.9481579661369324 0.1964075267314911 -0.5875170826911926 -26.706945419311523 -40.63386917114258 -23.439899444580078 -2.5698964595794678 63.39320373535156 4.288964748382568 -7.550320625305176 -11.297075271606445 -14.074079513549805 0.027436846867203712 -0.07214298844337463 -1.4050517082214355 33.81107711791992 -42.660362243652344 17.769323348999023 0.15740136802196503 66.63884735107422 -1.5112420320510864 7.837090492248535 -11.3201904296875 14.127035140991211
-1287.9610235800212 21.824382219083976 -2385.610708759246 -4.944989204406738 -8.40903091430664 6.251367568969727 -1.1492843627929688 14.93045711517334 4.227521896362305 4.486509799957275 -9.902780532836914 -1.8521044254302979 -5.814662933349609 18.10691261291504 -2.8153021335601807 8.253735542297363 -25.690488815307617 -2.9880735874176025 -0.47661179304122925 -0.5651046633720398 0.2117326855659485 -1.4503494501113892 2.1051039695739746 0.9484462738037109 0.21169671416282654 0.62212735414505 3.0086288452148438 45.64521026611328 41.945228576660156 17.135223388671875 -24.495943069458008 -26.248884201049805 71.59230041503906 -1.6347250938415527 -16.78691864013672 -1.6749285459518433 -0.03912344202399254 -0.1583615094423294 0.11722881346940994 1.631615400314331 -0.32802408933639526 -0.9154713153839111 1.6900429725646973 -0.6515030264854431 -0.3240143656730652 8.029175758361816 5.862525939941406 0.4605419933795929 0.8660115599632263 0.7745988368988037 -0.4125680923461914 2.2543580532073975 1.4410150051116943 3.159606456756592 1.459954857826233 0.345285028219223 0.618935227394104 12.314741134643555 0.1254500299692154 1.3821985721588135 0.7613201141357422 -1.920819878578186 -0.6703058481216431 2.0529415607452393 1.1363825798034668 -0.9948292970657349 -1.454354166984558 -0.4911688268184662 0.7923927903175354 -48.58159637451172 36.153961181640625 -34.392913818359375 24.892778396606445 -23.30525016784668 -66.75175476074219 1.230297565460205 -14.63420295715332 4.796884059906006 -0.9190397262573242 -0.4842354655265808 -0.23520153760910034 -0.8408150672912598 0.8103079795837402 0.03294996917247772 -0.658650279045105 0.2847915291786194 0.6984602808952332 -8.765578269958496 7.706279277801514 -2.7300570011138916 0.3564504384994507 0.08624986559152603 -3.0885162353515625 -4.633678913116455 -0.626682460308075 -0.15953484177589417 0.3190203011035919 0.25589466094970703 1.2516993284225464 -10.22970962524414 1.0148463249206543 -1.2164446115493774 1.0254727602005005 0.48405352234840393 1.0688512325286865 -0.8172072172164917 -1.8371180295944214 1.051011085510254 -0.9480735063552856 0.19663351774215698 -0.5880613923072815 -26.706157684326172 -40.63432312011719 -23.43893814086914 -2.5696375370025635 63.39350509643555 4.289109706878662 -7.550065517425537 -11.296950340270996 -14.07409954071045 0.0288360808044672 -0.07365093380212784 -1.405555009841919 33.81005859375 -42.65988540649414 17.76769256591797 0.15496480464935303 66.6380844116211 -1.5097118616104126 7.839590549468994 -11.320611000061035 14.128235816955566
-1315.333734093994 21.823851171876008 -2436.1442150883277 -4.949777126312256 -8.407126426696777 6.245631694793701 -1.1416282653808594 14.935798645019531 4.2255425453186035 4.488347053527832 -9.901846885681152 -1.8509376049041748 -5.816835403442383 18.106124877929688 -2.8189890384674072 8.262472152709961 -25.689128875732422 -2.9929420948028564 -0.47570502758026123 -0.5637038946151733 0.2044360190629959 -1.4539365768432617 2.1002423763275146 0.9399123191833496 0.2091687172651291 0.6308197379112244 3.010592460632324 45.64432907104492 41.942543029785156 17.135696411132812 -24.489234924316406 -26.248687744140625 71.5949478149414 -1.633209466934204 -16.783668518066406 -1.6782236099243164 -0.04227907955646515 -0.16115137934684753 0.11650726944208145 1.6220629215240479 -0.3258000910282135 -0.9119430184364319 1.6930932998657227 -0.6471240520477295 -0.3273024260997772 8.025846481323242 5.858667373657227 0.4607260823249817 0.8601219058036804 0.782263994216919 -0.41699057817459106 2.256883382797241 1.442954659461975 3.1628735065460205 1.4615150690078735 0.34437263011932373 0.6225759387016296 12.320151329040527 0.12788231670856476 1.3806483745574951 0.7613359093666077 -1.9235813617706299 -0.6734991073608398 2.0546741485595703 1.1372877359390259 -1.0003459453582764 -1.4536731243133545 -0.49400594830513 0.7945335507392883 -48.580631256103516 36.15147399902344 -34.38698959350586 24.8898868560791 -23.306020736694336 -66.74882507324219 1.2306699752807617 -14.630119323730469 4.800110816955566 -0.9141219854354858 -0.481270968914032 -0.23196128010749817 -0.8400499224662781 0.8089232444763184 0.028834955766797066 -0.6613962054252625 0.28084713220596313 0.7006521224975586 -8.764080047607422 7.704949855804443 -2.731656074523926 0.3567589819431305 0.08103015273809433 -3.0916635990142822 -4.635580062866211 -0.6276015043258667 -0.15053203701972961 0.3215685486793518 0.2632516622543335 1.2538763284683228 -10.23470687866211 1.0188908576965332 -1.2236154079437256 1.0243250131607056 0.4874972105026245 1.0726686716079712 -0.8153904676437378 -1.8395586013793945 1.055562138557434 -0.9488646388053894 0.19464576244354248 -0.5903407335281372 -26.705718994140625 -40.638336181640625 -23.443817138671875 -2.5900416374206543 63.394832611083984 4.301475524902344 -7.553930759429932 -11.29965591430664 -14.084196090698242 0.027012355625629425 -0.07528018206357956 -1.4067516326904297 33.81935501098633 -42.657161712646484 17.77802276611328 0.1433066576719284 66.63658142089844 -1.4998009204864502 7.840449333190918 -11.31684398651123 14.126379013061523
-1342.7056727965905 21.824537605887592 -2486.678001455165 -4.950519561767578 -8.40670108795166 6.243903636932373 -1.1392303705215454 14.937607765197754 4.225143909454346 4.489406585693359 -9.903295516967773 -1.8504403829574585 -5.815277576446533 18.106502532958984 -2.820131301879883 8.269495010375977 -25.688640594482422 -2.9909772872924805 -0.47831863164901733 -0.5645856857299805 0.20092324912548065 -1.455856204032898 2.098353624343872 0.9355669617652893 0.2100268453359604 0.6359493136405945 3.0124034881591797 45.642948150634766 41.94163513183594 17.13829803466797 -24.485553741455078 -26.244094848632812 71.60147857666016 -1.6330296993255615 -16.785898208618164 -1.6813302040100098 -0.041443757712841034 -0.1633819192647934 0.11297387629747391 1.6181150674819946 -0.3235390782356262 -0.9116813540458679 1.6961779594421387 -0.6466338634490967 -0.3267000913619995 8.02699089050293 5.855740070343018 0.4589671790599823 0.8565075993537903 0.7858740091323853 -0.41853421926498413 2.2585062980651855 1.4424023628234863 3.163709878921509 1.4614431858062744 0.3428162634372711 0.6211746335029602 12.322452545166016 0.12858036160469055 1.379333734512329 0.7609485387802124 -1.9266483783721924 -0.6778234243392944 2.05487322807312 1.1393228769302368 -1.0016824007034302 -1.4543983936309814 -0.4954196512699127 0.7968184947967529 -48.58121109008789 36.15266799926758 -34.38380813598633 24.890718460083008 -23.306289672851562 -66.7469711303711 1.2324343919754028 -14.626031875610352 4.802384853363037 -0.9117242693901062 -0.4815985858440399 -0.22872872650623322 -0.8378415107727051 0.8107393383979797 0.02663319557905197 -0.6646711230278015 0.2777736186981201 0.7012158632278442 -8.761924743652344 7.703527927398682 -2.7329025268554688 0.3575695753097534 0.0795568898320198 -3.0930585861206055 -4.635100841522217 -0.6301633715629578 -0.14619122445583344 0.32329708337783813 0.2655946612358093 1.2505807876586914 -10.238139152526855 1.0208370685577393 -1.2260950803756714 1.0205647945404053 0.4872288703918457 1.072594165802002 -0.8125185370445251 -1.8414456844329834 1.0568351745605469 -0.9484778642654419 0.1935293972492218 -0.5890067219734192 -26.707937240600586 -40.63774108886719 -23.448558807373047 -2.595123052597046 63.393470764160156 4.302857398986816 -7.555567264556885 -11.301358222961426 -14.08856201171875 0.025362592190504074 -0.07361098378896713 -1.4077818393707275 33.82168960571289 -42.65724563598633 17.780179977416992 0.14027687907218933 66.63713836669922 -1.4964450597763062 7.8386993408203125 -11.315622329711914 14.122620582580566
